# xmcd CD database file
#
# Track frame offsets:
#	150
#	17339
#	23378
#	47975
#	62582
#	74009
#	88386
#	110543
#	128655
#	152577
#	165598
#
# Disc length: 2410 seconds
#
# Revision: 0
# Processed by: cddbd v1.5.1PL2 Copyright (c) Steve Scherf et al.
# Submitted via: CDex 1.51
#
DISCID=8709680b
DTITLE=mimei - 土地の子
DYEAR=2005
DGENRE=Game
TTITLE0=土地の子
TTITLE1=僕の悲しみよ、君を消さないで
TTITLE2=ナスカンディア〜導きの風
TTITLE3=花祭
TTITLE4=るりいろのへや
TTITLE5=つちのこえ
TTITLE6=星の大地
TTITLE7=不在の夢
TTITLE8=遠い約束
TTITLE9=君は僕を忘れ、微笑むだろう
TTITLE10=故郷
EXTD=YEAR: 2005
EXTT0=
EXTT1=
EXTT2=
EXTT3=
EXTT4=
EXTT5=
EXTT6=
EXTT7=
EXTT8=
EXTT9=
EXTT10=
PLAYORDER=
